<svg xmlns="http://www.w3.org/2000/svg" xmlns:xlink="http://www.w3.org/1999/xlink" width="1920" height="395" viewBox="0 0 1920 395">
    <defs>
        <path id="prefix__a" d="M0 0H1920V395H0z"/>
        <path id="prefix__c" d="M0.275 0.241L1150.141 0.241 1150.141 443.432 0.275 443.432z"/>
        <path id="prefix__f" d="M0.646 0.673L551.655 0.673 551.655 304.255 0.646 304.255z"/>
        <path id="prefix__h" d="M0.274 0.815L286.885 0.815 286.885 215.841 0.274 215.841z"/>
        <path id="prefix__i" d="M0.274 0.32L871.996 0.32 871.996 395.435 0.274 395.435z"/>
        <path id="prefix__j" d="M1112.64 26.35c-10.227 12.01-38.838 32.416-52.71 41.9-17.717 12.113-47.003 22.368-65.42 24.906-4.423.61-9.006.421-13.576.232-5.928-.242-11.834-.488-17.336 1-11.535 3.126-20.751 12.728-33.122 15.396-4.853 1.051-9.543.789-14.181.528-6.335-.352-12.573-.71-18.992 2.277-8.092 3.764-12.133 19.965-20.797 23.519-14.672 6.005-48.816 4.943-64.727 7.136-21.443 2.954-47.053.245-67.533 4.804-23.06 5.137-42.65 14.131-66.78 17.522-19.064 2.673-48.226 12.41-67.534 7.498-16.568-4.22-34.709-20.054-52.632-26.49-11.947 19.625-33.922 14.598-53.57 6.342-22.973-9.658-34.5-11.583-59.745-16.324-21.41-4.032-40.08-22.682-61.697-24.474-20.09-1.667-39.214 16.62-52.86 27.392-34.049 26.893-61.267 57.1-95.993 82.3-25.99 18.864-53.174 37.307-84.482 49.255-33.086 12.622-67.235 22.786-98.54 38.913C33.1 318.902 16.663 327.21.014 334.984H1151.72V11.507c-.687.159-1.39.299-2.112.419-7.628-7.96-12.992-11.004-17.073-11.004-9.418 0-12.019 16.174-19.894 25.429"/>
        <path id="prefix__l" d="M0.9 0.185L1288.719 0.185 1288.719 339.984 0.9 339.984z"/>
        <linearGradient id="prefix__e" x1="-.008%" x2="100.009%" y1="50.04%" y2="50.04%">
            <stop offset="0%" stop-color="#83C1C3"/>
            <stop offset="100%" stop-color="#97AFAF"/>
        </linearGradient>
    </defs>
    <g fill="none" fill-rule="evenodd">
        <mask id="prefix__b" fill="#fff">
            <use xlink:href="#prefix__a"/>
        </mask>
        <g mask="url(#prefix__b)">
            <g>
                <g>
                    <g transform="translate(-29 69) translate(0 49) translate(797.578 356.031)">
                        <mask id="prefix__d" fill="#fff">
                            <use xlink:href="#prefix__c"/>
                        </mask>
                        <path fill="#FFF" d="M1180.986 143.74C1094.061 59.894 871.286.241 610.128.241 273.314.241.275 99.453.275 221.837c0 122.38 273.04 221.595 609.853 221.595 261.158 0 483.933-59.653 570.858-143.501V143.74z" mask="url(#prefix__d)"/>
                    </g>
                    <path fill="#D9D9D9" d="M1340.418 559.328c-19.74-1.216-41.234.738-61.165.738-44.355 0-88.829 4.551-132.184 12.572-16.635 3.077-44.441 9.327-38.347 27.92 6.554 19.98 27.145 24.767 44.549 36.476 21.448 14.428 35.566 30.456 64.009 28.468 24.678-1.721 53.34-9.396 76.164-17.245 28.893-9.936 56.587-22.554 83.813-35.777 10.673-5.185 20.194-10.23 31.703-13.271 8.913-2.358 17.705-4.74 24.962-9.78 12.322-8.552 27.099-22.28 26.593-36.745l-120.097 6.644z" transform="translate(-29 69) translate(0 49)"/>
                    <g>
                        <path fill="#9BE3FA" d="M402.45 14.693C371.454 11.2 342.723 2.35 310.657 1.407c-38.559-1.14-77.37 0-115.96 0h-76.61c-32.214 0-63.682-1.12-95.142 5.624-8.665 1.86-16.31 2.046-20.1 9.849-5.83 12.01.43 34.949 6.665 44.867 7.99 12.712 14.843 13.639 30.55 16.01 52.577 7.945 109.005.053 162.208.053 46.692 0 92.707-3.5 134.703-21.629 14.008-6.046 20.864-11.606 37.366-11.59 14.046.012 18.955-.622 30.412-6.946 11.74-6.475 23.12-9.672 37.09-10.776 7.691-.608 15.204-1.129 23.22-1.103 13.292.043 27.556-4.991 40.265-4.628L402.45 14.693z" transform="translate(-29 69) translate(0 49) translate(972.89 405.115)"/>
                        <path fill="url(#prefix__e)" d="M505.325 21.138l3.168.197c-1.042-.112-2.103-.166-3.168-.197" transform="translate(-29 69) translate(0 49) translate(972.89 405.115)"/>
                    </g>
                    <g transform="translate(-29 69) translate(0 49) translate(1396.064 413.777)">
                        <mask id="prefix__g" fill="#fff">
                            <use xlink:href="#prefix__f"/>
                        </mask>
                        <path fill="#9BE3FA" d="M579.763 23.307c-47.11-5.267-94.944-8.536-141.567-16.6C376.816-3.906 307.96 2.71 245.581 2.71c-34.042 0-67.147.327-100.946 3.098-40.825 3.348-75.822 14.72-114.253 23.475L.996 30.39c-3.17 5.063 16.093 25.509 21.406 31.062 10.857 11.343 26.47 15.772 43.529 18.768 15.484 2.72 34.189 2.24 48.805 6.676 10.977 3.334 19.757 12.516 29.45 17.721 7.936 4.26 24.249 8.358 29.321 15.354 8.172 11.271 3.398 21.16 19.04 28.655 6.796 3.259 16.514 4.227 22.723 7.92 7.086 4.212 13.799 11.527 19.566 17.024 18.748 17.866 36.315 34.74 61.735 44.902 29.091 11.637 53.464 32.084 83.186 43.56 29.685 11.457 68.1 20.767 100.159 25.334 33.49 4.766 68.172 19.139 99.847 16.59V23.307z" mask="url(#prefix__g)"/>
                    </g>
                    <path fill="#9BE3FA" fill-opacity=".1" d="M1469.034 124.112c-13.885-2.73-27.07-6.345-40.884-9.507-32.393-7.412-61.472-18.175-92.038-29.163-23.63-8.493-49.258-10.764-72.82-21.04-12.025-5.248-15.321-8.79-29.763-1.544-3.562 1.785-2.788 7.348-6.312 9.034-2.887 1.381-7.584-1.101-10.303.222-5.225 2.544-9.863 1.67-13.632 7.53-21.666-10.687-36.157-28-62.591-11.584-19.062 11.836-27.28 34.03-51.499 36.5-13.361 1.364-25.683-1.86-37.516-2.917-14.33-1.282-21.873 5.622-37.483 7.052-17.44 1.596-23.355 3.56-39.136 8.86-12.713 4.268-26.49 6.634-39.597 7.709-15.377 1.259-26.797 4.465-40.508 4.352-14.977-.122-29.963-2.64-44.669-4.352-29.41-3.42-56.187-11.772-84.842-17.678-25.093-5.17-50.203-8.482-74.91-14.84-12.127-3.126-23.508-10.392-35.774-11.774-16.077-1.814-22.483 8.201-35.773 11.81-29.276 7.954-51.555.335-80.064-5.87-26.795-5.833-52.061-11.84-77.123-21.814-13.25-5.272-20.887-10.452-35.22-12.253-13.66-1.716-29.571-2.168-42.764-5.831-24.584-6.825-42.08-31.207-64.267-41.666-9.777-4.61-24.835-6.286-36.152-2.618-13.101 4.242-18.158 17.342-30.753 23.649-10.995 5.512-27.413 3.777-37.853 9.895-12.945 7.586-14.818 15.869-30.247 20.711-17.072 5.354-20.483-.14-37.337-1.19-15.56-.968-24.902 7.957-37.568 11.89-9.268 2.876-13.085 2.715-22.233 7.382-8.223 4.19-8.376 5.626-18.651 7.381-13.374 2.286-28.021.194-40.884 2.953L.892 190.61v106.8c121.686-2.183 533.423-6.125 587.385 5.027 22.63 4.677 44.978 13.473 68.22 14.855 19.06 1.137 38.618-1.709 57.813-1.566 49.575.37 95.201-.533 144.403-6.321 45.99-5.407 90.257-16.11 134.593-27.938 59.847-15.966 115.33-39.781 176.334-52.856 51.5-11.037 102.877-18.932 154.59-28.38 54.685-9.989 103.588-29.771 149.91-56.138 24.589-13.994 18.055-15.424-5.106-19.981" transform="translate(-29 69) translate(0 49)"/>
                    <path fill="#E9FAFF" d="M1977.496 196.602c-16.873-3.193-32.253-12.416-49.508-15.736-17.407-3.346-37.159-6.644-53.88-9.694-36.737-6.697-66.36-18.466-98.958-36.042-28.961-15.626-65.029-29.396-92.396-48.493-26.002-18.145-53.284-41.181-81.911-55.308-10.175-5.022-24.855-10.593-38.26-11.61-.008-.002-.015-.002-.023-.002-1.214-.09-2.415-.145-3.603-.153-.069-.006-.135-.006-.204-.006-1.091-.007-2.165.024-3.228.09-.163.01-.332.013-.493.023-.966.074-1.914.187-2.846.325-.225.033-.458.05-.677.086-1.12.187-2.221.42-3.287.71-9.234 2.542-10.136 9.137-17.656 11.714-14.956 5.116-13.142.133-22.037-.115-22.588-.626-25.527 1.842-41.773 17.042-13.3 12.451-22.45 17.041-40.486 23.67-18.748 6.893-28.358 17.13-45.33 26-14.238 7.438-37.391 12.7-53.492 19.172-34.013 13.673-70.512 19.954-105.261 32.607-23.851 8.682-35.1 14.462-61.884 9.57-23.439-4.28-32.058-13.968-54.639-8.952-22.253 4.94-23.577 11.435-47.425-1.647-14.072-7.717-28.923-16.513-41.723-24.868-28.496-18.602-79.98-52.917-116.453-55.924-.925-.076-1.807-.115-2.693-.163h-.003c-29.661-1.533-38.97 13.578-57.12 25.72-.044.031-.087.062-.13.087-.67.447-1.357.89-2.052 1.326-.13.082-.256.163-.386.248-.636.393-1.293.781-1.952 1.167-.195.115-.381.23-.578.34-.618.355-1.26.702-1.904 1.05-.247.13-.49.27-.743.403-.618.324-1.262.639-1.904.953-.291.143-.572.288-.869.429-.628.296-1.282.58-1.934.868-.332.146-.651.3-.991.442-.652.276-1.334.54-2.011.802-.36.14-.706.286-1.071.424-.741.276-1.515.54-2.287.8-.327.11-.636.227-.97.337-1.118.362-2.265.71-3.448 1.04-28.07 7.795-67.753 2.745-93.425 19.649-13.7 9.018-22.676 14.776-36.801 22.004-16.48 8.436-19.985 18.53-33.397 29.432-38.467 31.265-172.736-49.25-188.415-2.764-40.44 1.867-77.716-6.909-116.732-15.333-39.055-8.428-69.623-27.697-103.388-41.219-16.49-6.603-33.418-11.274-50.658-19.243-13.755-6.358-40.044-16.924-54.785-9.635-8.136 4.026-25.3 27.21-31.31 33.274-14.424 14.548-20.662 18.607-41.436 25.48-18.635 6.163-37.736 16.53-56.686 20.303-3.005.595-6.043 1.068-9.091 1.497v262.542c24.816 8.952 57.7 10.155 81.98 11.248 59.742 2.687 122.246 1.742 181.707-2.932 8.857-.695 17.708-1.351 26.552-1.98 2.55-.18 5.098-.347 7.648-.523 6.38-.44 12.758-.871 19.13-1.277 2.814-.179 5.623-.35 8.433-.521 6.296-.39 12.588-.764 18.879-1.121 2.562-.143 5.128-.286 7.69-.427 6.882-.375 13.758-.736 20.637-1.075 1.891-.095 3.78-.192 5.67-.281 8.693-.42 17.384-.815 26.074-1.183.02 0 .041 0 .061-.002 28.055-1.178 56.096-2.085 84.166-2.77l.304-.007c26.212-.638 52.444-1.08 78.725-1.366l2.517-.03c12.398-.129 24.809-.226 37.232-.29 1.766-.01 3.534-.015 5.302-.025 12.324-.054 24.659-.09 37.016-.09 15.906 0 31.808-.076 47.704-.186 3.383-.025 6.764-.048 10.147-.074 15.355-.128 30.707-.296 46.053-.508 2.77-.039 5.538-.087 8.308-.125 13.99-.207 27.975-.445 41.96-.713 2.654-.049 5.307-.095 7.96-.146 15.26-.301 30.517-.63 45.772-.986l11.72-.275c14.594-.35 29.187-.713 43.777-1.096 2.84-.074 5.678-.15 8.52-.227 13.2-.35 26.398-.708 39.598-1.076 6.215-.17 12.432-.345 18.646-.518l8.197-.23c28.711-.807 57.425-1.627 86.148-2.411 35.079-.96 70.17-1.87 105.285-2.641 161.525-3.553 323.294 2.728 484.85 2.191 108.06-.36 208.609 1.007 313.303-11.976V199.317l-1.068-2.715z" transform="translate(-29 69) translate(0 49)"/>
                    <path fill="#DFF7FF" d="M1524.956 334.289c-20.651-8.355-24.704-32.055-52.99-34.387-5.28-.437-10.876 2.58-16.7.687-5.238-1.699-7.292-8.286-12.193-10.171-8.826-3.384-24.832-1.032-34.06-2.572-4.984-.83-7.55-3.33-13.046-3.76-6.363-.503-10.975 4.838-17.151 2.393-8.951-3.54-11.69-19.13-9.217-27.007-15.8-14.038-33.505-4.274-50.446-10.884-9.554-3.726-13.203-10.005-19.356-13.92-6.237-3.962-17.956-9.292-26.978-11.16 1.625-21.873-26.603-20.829-38.115-30.632-6.429-5.476-7.137-10.232-16.783-15.274-8.772-4.58-14.728-9.509-21.41-15.58-10.822-9.839-23.478-29.225-39.083-30.888-7.893-.84-14.238 5.001-19.701 6.424-.424.112-.843.192-1.26.245-.05.005-.104.02-.158.026-.442.05-.88.064-1.308.03-8.164-.651-14.652-10.727-19.788-15.698-8.152 6.631-17.647 10.363-25.88 17.067-2.778 2.263-9.633 10.156-12.495 11.354-6.358 2.654-12.915-.7-14.389-.235-11.818 3.744-15.937 16.612-24.285 27.03-9.567 11.95-20.378 23.305-32.667 33.151-19.982 16.007-40.651 24.142-61.43 38.87-16.316 11.557-32.422 24.213-48.085 36.737-11.933 9.54-34.491 22.591-40.961 35.613-1.564 3.149-3.238 4.523-5.147 7.253 9.406 12.337 51.236 9.1 67.963 9.673 26.22.894 50.543 5.507 75.957 8.503 28.862 3.405 61.033.038 88.29 7.816 17.12 4.888 57.797 3.272 69.715 12.357l571.573-14.562c-19.387-1.034-181.743-11.751-198.416-18.5" transform="translate(-29 69) translate(0 49)"/>
                    <path fill="#CCF3FF" d="M1429.001 529.43c-85.095-35.306-176.3-88.029-267.794-108.015-26.523-5.796-56.877-7.72-82.195-16.562-19.916-6.955-36.91-17.56-56.226-24.964-67.998-26.073-149.102-39.835-212.29-77.456-30.743-18.306-46.345-44.8-66.946-68.097-7.679-8.684-29.334-26.433-40.243-26.688-26.577-.631-26.12 20.831-56.215 3.494-31.218-17.984-59.612-42.017-81.135-68.71-11.2-13.887-19.668-23.614-39.019-28.285-8.195-1.977-15.163 1.22-24.786-2.787-9.27-3.854-13.727-11.642-21.794-16.543-12.669-7.704-34.049-18.756-48.606-22.148-1.472-.342-3.002-.615-4.558-.863-.33-.051-.66-.105-.994-.153-1.541-.222-3.113-.414-4.72-.562-.197-.018-.394-.03-.588-.046-1.561-.138-3.148-.243-4.758-.322-.22-.013-.437-.028-.659-.036-1.755-.081-3.536-.135-5.335-.17-.062 0-.118-.003-.18-.006l.003.003c-4.338-.08-8.78-.054-13.236-.036h-.002c-1.868.008-3.741.015-5.607.013h-.373c-3.67-.008-7.313-.056-10.88-.212-.27-.01-.54-.023-.81-.036-1.727-.084-3.442-.186-5.123-.327-.085-.005-.169-.01-.253-.018-43.877-3.79-57.764 5.512-95.053 23.757-16.254 7.948-36.221 13.325-50.526 23.2-15.418 10.65-23.12 29.46-38.898 41.073-13.615 10.02-33.096 15.79-47.993 25.468-15.194 9.872-27.247 20.778-40.31 33.214-13.583 12.935-21.205 21.386-41.517 23.808-10.812 1.287-20.64-.812-30.53 2.283-10.03 3.137-13.117 9.721-21.084 12.776-2.062.792-4.403 1.316-6.876 1.706v352.38c33.872 5.867 68.46 10.595 101.807 16.37 65.992 11.427 134.68 7.141 201.428 11.47 65.361 4.238 129.342 6.08 194.951 6.08 131.45 0 262.203-9.155 393.186-17.119 5.53-.337 11.043-.763 16.558-1.223 1.377-.115 2.754-.232 4.129-.355 5.343-.475 10.68-.98 16.011-1.543.056-.002.113-.007.171-.015 5.522-.582 11.034-1.21 16.546-1.86 1.477-.17 2.954-.347 4.428-.52 5-.598 9.999-1.209 14.994-1.832 5.085-.633 10.168-1.274 15.25-1.91 1.505-.19 3.01-.376 4.515-.567 11.243-1.403 22.489-2.767 33.75-3.985 1.25-.135 2.5-.268 3.749-.398 5.552-.585 11.107-1.142 16.67-1.63 16.402-1.44 32.86-2.406 49.416-2.529 55.17-.403 110.014-2.985 165.047-6.59 56.26-3.688 149.628-1.895 197.982-32.675 31.475-20.04 6.355-27.337-22.479-39.301M1915.376 122.836c-8.222-2.698-16.56-13.512-23.881-18.723-.033-.028-.072-.056-.107-.079-.552-.39-1.094-.753-1.633-1.07-12.403-7.325-10.377-10.51-28.113-4.043-8.867 3.23-20.598 9.236-20.754 19.169-19.655-2.547-33.885 29.066-45.486 40.238-10.638 10.243-31.246 30.515-28.627 46.129-17.135 1.44-35.413 6.189-52.705 8.692-19.616 2.843-26.505 6.258-36.788 24.469-19.98-1.065-33.267 12.863-50.527 18.216-16.633 5.16-35.695 5.504-53.224 8.304-10.213 1.63-9.237-3.788-21.012 3.15-6.176 3.636-11.22 15.523-15.832 21.217-10.466 12.921-23.654 29.253-37.762 40.356-30.704 24.17-66.29 29.848-104.832 39.814-1.837.478-3.577.956-5.236 1.436-.63.186-1.193.37-1.798.554-.984.299-1.986.6-2.903.902-.698.23-1.321.46-1.98.692-.737.258-1.5.513-2.19.774-.698.263-1.322.523-1.973.789-.567.227-1.163.455-1.694.685-.662.286-1.25.574-1.858.86-.44.207-.91.417-1.326.623-.608.31-1.15.616-1.7.928-.334.186-.694.373-1.009.559-.546.33-1.032.656-1.515.986-.248.166-.514.335-.744.5-.477.35-.894.698-1.305 1.045-.171.146-.36.294-.519.437-.401.37-.746.736-1.073 1.103-.11.126-.235.25-.337.376-.317.386-.58.769-.816 1.154-.063.105-.14.21-.196.312-.228.401-.402.802-.542 1.203-.03.084-.07.169-.095.25-.13.42-.207.833-.25 1.247-.005.066-.018.13-.02.196-.031.427-.014.856.053 1.283.005.046.01.094.018.14.074.44.197.876.365 1.31.013.034.023.064.039.097.176.445.404.887.677 1.323l.038.064c.284.447.611.89.987 1.323.007.008.01.016.015.023h.005c6.623 7.701 27.165 14.11 49.324 16.738 37.754 4.483 77.902 6.245 117.542 4.37 34.046-1.612 87.571-10.827 119.653.386 6.72 18.67-17.777 20.753-27.911 32.834 14.186 15.72 84.834 10.094 107.579 11.065 38.74 1.655 75.98 7.25 114.976 3.946 34.414-2.917 67.584-7.344 102.392-8.197V122.136c-12.268-2.996-20.447 4.947-33.39.7" transform="translate(-29 69) translate(0 49)"/>
                    <g transform="translate(-29 69) translate(0 49) translate(31 252.864)"/>
                    <g transform="translate(-29 69) translate(0 49) translate(31 427.548)"/>
                    <g transform="translate(-29 69) translate(0 49) translate(796 488)">
                        <mask id="prefix__k" fill="#fff">
                            <use xlink:href="#prefix__j"/>
                        </mask>
                        <path d="M1112.64 26.35c-10.227 12.01-38.838 32.416-52.71 41.9-17.717 12.113-47.003 22.368-65.42 24.906-4.423.61-9.006.421-13.576.232-5.928-.242-11.834-.488-17.336 1-11.535 3.126-20.751 12.728-33.122 15.396-4.853 1.051-9.543.789-14.181.528-6.335-.352-12.573-.71-18.992 2.277-8.092 3.764-12.133 19.965-20.797 23.519-14.672 6.005-48.816 4.943-64.727 7.136-21.443 2.954-47.053.245-67.533 4.804-23.06 5.137-42.65 14.131-66.78 17.522-19.064 2.673-48.226 12.41-67.534 7.498-16.568-4.22-34.709-20.054-52.632-26.49-11.947 19.625-33.922 14.598-53.57 6.342-22.973-9.658-34.5-11.583-59.745-16.324-21.41-4.032-40.08-22.682-61.697-24.474-20.09-1.667-39.214 16.62-52.86 27.392-34.049 26.893-61.267 57.1-95.993 82.3-25.99 18.864-53.174 37.307-84.482 49.255-33.086 12.622-67.235 22.786-98.54 38.913C33.1 318.902 16.663 327.21.014 334.984H1151.72V11.507c-.687.159-1.39.299-2.112.419-7.628-7.96-12.992-11.004-17.073-11.004-9.418 0-12.019 16.174-19.894 25.429" mask="url(#prefix__k)"/>
                    </g>
                    <g transform="translate(-29 69) translate(0 49) translate(659 483)">
                        <mask id="prefix__m" fill="#fff">
                            <use xlink:href="#prefix__l"/>
                        </mask>
                        <path fill="#6F6F6E" d="M1286.608 17.027c-25.228-26.321-25.68 1.156-36.973 14.418-10.225 12.008-38.838 32.408-52.709 41.89-5.742 3.923-12.71 7.646-20.118 10.98-15.452 6.957-32.858 12.204-45.306 13.914-10.154 1.396-21.164-1.4-30.914 1.236-11.534 3.123-20.75 12.72-33.121 15.39-11.493 2.48-22.06-2.366-33.175 2.804-8.095 3.762-12.134 19.959-20.801 23.512-14.67 6.003-48.816 4.938-64.73 7.133-21.442 2.953-47.056.243-67.537 4.8-23.062 5.139-42.652 14.13-66.784 17.52-19.064 2.672-48.228 12.406-67.537 7.495-16.568-4.218-34.71-20.047-52.635-26.482-11.947 19.62-33.923 14.594-53.572 6.34-22.977-9.655-34.503-11.582-59.746-16.321-21.414-4.028-40.084-22.674-61.703-24.466-20.09-1.664-39.216 16.617-52.86 27.385-34.052 26.886-61.273 57.081-96 82.274-25.992 18.859-53.174 37.296-84.487 49.24-33.085 12.616-67.238 22.78-98.543 38.902-37.836 19.489-71.497 36.048-112.312 50.54C53.892 373.043 22.577 381.162.9 392.045h88.844c17.063-4.184 33.76-8.303 49.336-10.118 56.704-6.6 115.768-1.383 172.122 3.75 39.98 3.642 80.499 5.546 121.283 6.368H545.94c16.43-.258 32.865-.6 49.285-.975 54.676-1.251 109.178-2.92 162.855-3.5 172.49-1.86 345.043-6.253 517.497-4.918 14.603.113 29.279.332 43.977.626V.185c-11.853 4.73-18.77 14.461-32.945 16.842" mask="url(#prefix__m)"/>
                    </g>
                </g>
                <g fill="#C8F2FF">
                    <path d="M16.426 58.834v-.002l-.02.006c-.034.007-.068.016-.103.027l-.037.01c-.04.015-.081.031-.122.05l-.015.008-.024.012c-.036.02-.073.04-.109.064l-.045.03c-.032.022-.062.045-.093.07l-.027.02-.011.01c-.03.026-.06.053-.088.081l-.067.064c-.038.035-.075.073-.111.112l-.01.012c-.035.037-.07.076-.103.116l-.049.06c-.038.048-.076.098-.113.151-.064.095-.136.182-.195.273-.06.091-.117.182-.168.272-.051.09-.095.182-.139.264-.043.084-.08.168-.11.248-.058.161-.09.314-.085.45.006.137.042.253.129.356-.118-.133-.287-.18-.48-.159l.002-.001-.016.003c-.03.004-.062.01-.093.018l-.039.008c-.038.011-.076.024-.114.04-.005 0-.01.003-.014.005l-.03.013c-.034.015-.068.03-.102.048-.023.01-.046.023-.068.035-.021-.86-.112-2.422-.49-2.76-.028-.024-.054-.042-.08-.057-.467-.272-.641.964-1.307 1.116-.521.118-1.288.099-1.586.256v-.001l-.008.004-.011.007c-.019.012-.036.024-.05.037l-.011.012c-.013.013-.023.027-.03.043l-.004.01c-.007.017-.012.036-.012.056v.004c.001.022.006.046.016.072.258.685.988 1.27 1.634 1.678-.737.026-1.897.404-3.044 2.16 0 0-.313.664-1 1.034 0 0 1.529.307 2.72-.406 0 0-.17.52-1.325.919 0 0 2.934-.018 3.886-1.752.015.8.143 1.867.664 2.49.017.021.036.037.055.048l.004.003c.017.01.035.015.053.018l.011.001c.017.002.034 0 .051-.005l.019-.004c.015-.006.031-.013.047-.022l.025-.014c.284-.182.645-.86 1.004-1.255.435-.478 1.497-.096 1.604-.512l.002.002c.002-.007.001-.016.002-.024.003-.016.006-.031.006-.05 0-.03-.002-.064-.01-.102-.114-.528-1.596-1.454-2.295-1.864.067-.058.132-.115.188-.173.067-.075.124-.148.172-.22.193-.29.224-.56.059-.753.02.023.042.044.065.062.007.006.015.01.022.015.017.012.034.024.053.034l.035.016.045.018c.015.005.031.01.047.013l.042.008c.01.002.019.005.029.006h.022c.016.002.032.002.049.002h.05c.018 0 .038-.003.057-.004l.051-.006.046-.009c.045-.008.09-.019.137-.033l.042-.011.016-.005.05-.018.065-.023.058-.024.072-.03.03-.013.02-.01.046-.021.047-.026.056-.031.072-.044.046-.028.024-.017.004-.002c.085-.055.17-.116.255-.18v-.001l.01-.008c.097-.076.201-.153.293-.246.187-.182.35-.371.478-.558.12-.193.203-.385.245-.566.044-.178.036-.352-.02-.504-.054-.153-.155-.283-.303-.387-.148-.102-.305-.151-.461-.156-.062-.001-.123.006-.185.017" transform="translate(-29 69) translate(361)"/>
                    <path d="M27.877 23.503c-.672.342-1.457.911-2.253 1.854-.356.084-.652.2-.872.354 0 0-8.96 2.739-9.367 2.82l.237.01c-5.645 2.04-3.215 6.813 2.789 11.234-.056 2.305.18 4.478-.656 6.65-1.307 3.4-1.596 6.439.19 9.36l-.059.018V55.8l-.024.009c-.038.012-.074.026-.11.042l-.039.016c-.043.02-.086.043-.128.068l-.015.01-.022.016c-.035.025-.07.05-.103.079-.017.013-.033.028-.049.042-.008.009-.018.016-.027.025-.017.016-.032.034-.048.052-.01.01-.02.018-.029.029l-.011.014c-.025.03-.05.061-.075.094-.02.025-.038.05-.057.077-.026.037-.051.075-.075.115l-.021.036c-.012.02-.024.039-.035.06l-.025.053c-.015.028-.029.057-.043.087l-.067.156c-.044.103-.082.207-.114.31-.033.102-.055.207-.078.306-.048.199-.067.394-.06.578.011.186.037.352.109.504.07.153.176.286.332.394.037.026.074.048.112.068.012.006.025.01.037.017l.076.032.048.014c.023.007.045.013.068.017l.051.009.07.007.028.002h.021c.026 0 .052-.002.078-.004l.045-.004c.024-.003.049-.007.073-.012.02-.004.038-.006.057-.011.04-.01.08-.022.12-.035l.001-.001.03-.013c.031-.012.062-.025.093-.04l.012-.006c.015-.007.03-.016.045-.025l.067-.037.062-.038.064-.043.055-.039.034-.024.046-.037.046-.037.072-.063.042-.037.01-.01.014-.013c.024-.023.046-.047.068-.072l.041-.043c.036-.04.07-.082.105-.124l.008-.01c.08-.099.157-.204.23-.315.074-.112.13-.228.184-.342.017-.037.032-.075.047-.113.104.112.212.223.323.335 1.79 1.795 5.481 3.112 9.55 3.39.018.092.038.184.061.273-.042-.053-.084-.107-.125-.163l-.014-.005h-.002c-.066-.02-.343-.088-.557.034h-.003c-.117.068-.213.195-.246.417l-.03.008c-.196-.639-1.46-.27-2.118.14-.275.171-.332.557-.332.557-.61.204-1.087.399-1.386.58-1.329.4-3.564 1.324-6.905 3.468 0 0-.063.423.001 1.11-1.029.654-2.146 1.41-3.057 2.133 0 0-1.979-.873-7.009-2.797l-.005-.009s.699-.829-.213-1.632c0 0 .322-.46-.045-.989 0 0-.247-.233-.646-.365l4.921-47.31c4.057-.973 10.756-1.188 14.774.723 1.692.804 3.45 1.073 5.234.995l-3.626 5.019zm30.189 42.435c1.283.53 2.749 0 2.749 0-.733-.265-1.14-.876-1.14-.876-1.395-1.567-2.598-1.77-3.33-1.687.578-.498 1.214-1.185 1.369-1.901.006-.029.007-.055.003-.078 0-.005-.003-.008-.004-.012-.004-.018-.01-.036-.02-.05-.002-.003-.005-.005-.006-.008-.012-.015-.026-.03-.044-.041l-.003-.002c-.259-.169-1.1-.01-1.676-.053-.646-.049-.997-1.124-1.39-.953h-.001c-.023.01-.045.024-.068.042-.023.02-.046.04-.07.068-.324.39-.184 1.947-.078 2.802l-.067-.023c-.054-.019-.107-.035-.158-.047-.044-.01-.086-.016-.127-.021l-.014-.001c-.04-.005-.078-.006-.115-.005l-.016-.001.002.001c-.194.007-.353.08-.45.229.07-.115.09-.236.075-.371-.016-.137-.07-.283-.152-.434-.04-.075-.089-.152-.143-.23-.057-.075-.114-.157-.177-.24-.064-.08-.133-.163-.206-.243-.073-.083-.156-.157-.234-.242-.044-.046-.089-.09-.133-.132l-.057-.051c-.089-.08-.179-.152-.27-.215l-.034-.024c-.046-.034-.093-.065-.14-.094l-.004-.002c-.046-.029-.093-.054-.139-.076l-.03-.015c-.047-.021-.094-.04-.141-.056l-.006-.002-.02-.007c-.044-.013-.088-.023-.13-.03-.012-.003-.022-.004-.033-.005-.037-.006-.073-.01-.109-.012l-.022-.003v.002c-.062-.002-.124 0-.184.01-.154.028-.303.1-.434.223-.13.124-.211.27-.243.427-.032.16-.014.331.056.502.067.173.179.35.326.524.154.165.343.328.555.481.104.079.217.14.325.2.088.049.173.092.258.132l.032.016.026.011.005.003.016.007.105.045c.024.01.048.018.072.026l.045.018.032.008.037.012c.06.018.12.032.178.045l.029.006c.027.005.055.012.081.016.046.007.09.013.133.017h.004c.04.004.08.005.119.005h.003c.037 0 .072-.003.106-.007l.02-.003c.026-.004.053-.009.078-.015l.012-.002.017-.006c.02-.006.038-.012.056-.02l.037-.016c.016-.008.031-.017.046-.027.01-.006.02-.012.03-.02.017-.012.033-.027.049-.042l.018-.017c.02-.022.04-.046.056-.072-.136.216-.064.479.169.735.058.065.126.13.202.194.064.049.137.096.212.143-.304.246-.771.637-1.178 1.038-.79-.614-1.508-1.133-2.158-1.573-.114-.939-.235-1.844-.336-2.576l.002-.001c.019-.006.037-.011.055-.018.02-.007.04-.016.06-.025l.05-.024c.022-.011.043-.025.065-.04.013-.008.026-.015.038-.024.035-.025.068-.052.1-.083.139-.13.224-.278.271-.438.048-.162.05-.33.032-.516-.018-.182-.067-.372-.142-.562-.038-.095-.076-.195-.123-.292-.046-.098-.1-.194-.158-.29l-.092-.146c-.017-.027-.035-.052-.053-.078-.01-.016-.021-.033-.033-.048l-.042-.053-.028-.035c-.03-.036-.06-.07-.092-.103l-.06-.061-.094-.088-.014-.013c-.01-.008-.022-.015-.032-.024l-.055-.044-.03-.02-.058-.037c-.035-.021-.072-.04-.109-.059-.009-.004-.018-.01-.027-.013l-.017-.009c-.046-.02-.092-.035-.14-.05l-.018-.004c-.046-.013-.094-.023-.142-.03-.006-.002-.011-.004-.017-.004v.001c-.061-.009-.124-.013-.188-.011-.06-.064-.122-.125-.186-.184.018-.022.037-.043.053-.066.116-.162.197-.343.245-.537.05-.192.056-.391.048-.6-.006-.104-.019-.21-.04-.314-.023-.104-.045-.212-.079-.318-.02-.065-.044-.127-.069-.188l-.012-.029c-.021-.049-.043-.097-.067-.143l-.02-.039c-.03-.052-.06-.102-.092-.15l-.003-.004-.007-.01c-.035-.048-.072-.092-.11-.135l-.004-.004-.01-.009c-.035-.038-.072-.074-.11-.107-.01-.01-.021-.018-.032-.027-.043-.034-.087-.067-.136-.096l-.006-.004-.021-.014c-.048-.027-.097-.05-.148-.072l-.016-.006c-.05-.02-.101-.037-.155-.052l-.023-.008v.002c-.081-.021-.165-.038-.254-.046-.226-.02-.48.005-.75.088-.542.162-.897.483-1.031.892-.066.2-.087.42-.054.648-1.025-.219-2.037-.268-2.759-.267.077-.096.153-.193.227-.292l.03-.039c.088-.12.175-.242.26-.367l.069-.104c.063-.095.125-.191.186-.289l.07-.114c.076-.124.15-.25.221-.378l.012-.02c.075-.136.147-.275.218-.415l.058-.12c.052-.106.103-.213.152-.322l.057-.127.016-.036c.042.151.098.294.164.428.017.034.033.068.051.1l.024.04c.021.037.043.073.066.108l.011.019.036.047.06.08.052.061.03.036.021.021c.02.022.041.043.063.064.02.02.043.04.065.06l.059.049c.03.023.06.045.092.066.01.007.019.015.03.021l.008.005c.033.021.068.04.103.06.017.009.034.019.052.027.045.023.091.043.139.06.014.006.029.01.043.014.038.013.076.025.116.035l.056.011c.036.008.072.014.11.02l.065.006c.035.003.07.005.107.006h.072c.036 0 .073-.003.11-.006l.075-.006c.04-.005.08-.012.122-.02l.069-.012c.064-.014.13-.03.197-.05.572-.175.934-.484 1.16-.849.223-.365.306-.789.27-1.22-.006-.062-.015-.122-.026-.181-.004-.022-.01-.043-.015-.065-.009-.04-.02-.078-.031-.116l-.019-.057c-.018-.05-.038-.098-.06-.145l-.007-.014-.004-.01c-.025-.045-.052-.09-.082-.132.833-.51 1.598-1.366 2.027-2.473.161-.417.276-.835.345-1.243 3.08-.838 3.667-2.544 3.242-4.31l.05.051-.14-.378c-.081-.262-.182-.524-.298-.784-.69-1.802-2.123-5.45-3.788-9.14l-.001-.002c-.017-1.18-.138-3.786-.857-4.78-.019-.026-.042-.054-.068-.082l-.024-.025c-.022-.024-.048-.05-.076-.076l-.016-.016-.007-.073-.014-.13-.017-.163-.014-.125-.02-.192-.02-.167-.013-.122-.024-.205-.02-.165-.02-.157-.015-.126-.031-.246-.018-.134-.022-.161-.02-.155-.033-.23-.02-.14-.022-.152-.037-.24-.023-.146-.026-.167-.03-.18-.033-.198-.023-.13-.042-.236-.023-.125-.036-.189-.022-.113-.051-.252-.022-.104-.043-.198-.018-.083-.058-.248-.023-.092-.06-.243-.017-.06c-.017-.067-.036-.133-.054-.199l-.021-.074c-.022-.077-.044-.152-.067-.225l-.02-.064-.06-.184-.017-.05c-.024-.07-.05-.137-.074-.202l-.022-.056c-.025-.066-.051-.13-.078-.192l-.009-.02c-.025-.057-.05-.11-.076-.163l-.02-.042c-.028-.055-.056-.107-.084-.156l-.018-.03c-.025-.043-.051-.084-.077-.123l-.017-.024c-.03-.042-.06-.08-.09-.116l-.021-.024c-.032-.036-.064-.069-.096-.097-1.466-1.275-4.766-1.781-6.557-1.7l-2.532.23-.013-.01-.005-.004-.008-.006-.014-.011-.017-.013-.013-.01-.026-.02-.01-.007-.031-.024-.015-.01c-.01-.01-.022-.018-.034-.027l-.017-.012-.04-.03-.017-.012-.05-.036-.012-.01-.056-.04-.012-.009-.066-.047-.002-.002c-.582-.413-1.596-1.072-2.315-1.205l-.24-.041c2.263-.55 4.529-1.468 6.72-2.386 5.02-2.103 14.512 1.893 14.512 1.893-.14-.345-.296-.677-.466-.999l-.022-.044c-.078-.146-.16-.289-.244-.43l-.036-.063c-.082-.137-.169-.27-.257-.403l-.045-.071c-.088-.13-.179-.255-.27-.38-.02-.024-.036-.05-.055-.075-.092-.123-.188-.242-.285-.36l-.06-.077c-.097-.117-.198-.23-.3-.343l-.064-.074c-.104-.113-.21-.222-.318-.33l-.065-.068c-.11-.108-.222-.213-.336-.317-.022-.02-.042-.042-.065-.062-.115-.104-.233-.205-.352-.305l-.064-.055c-.123-.101-.248-.199-.374-.295l-.058-.046c-.129-.097-.26-.192-.393-.284l-.053-.038c-.137-.094-.276-.186-.416-.275l-.042-.028c-.144-.09-.29-.177-.436-.262l-.036-.022c-.149-.086-.3-.169-.453-.249l-.028-.016c-.157-.082-.315-.16-.475-.237l-.016-.008C47.325 10 44.27 9.549 41.566 9.918c-5.39.736-10.488-2.628-10.488-2.628-6.72-5.01-14.41-5.464-18.04-5.35l.18-1.728-.764-.079-1.296-.134-.219 2.099-.008.001c-1.022.068-.46 1.827-.46 1.827l-.69 5.85-.45 3.823c-.927 1.787 0 3.87 0 3.87l.01-.003L4.51 63.908c-.383.017-.9.232-1.526.954 0 0-.922 1.222.005 2.99 0 0 .3.467 1.03.774L0 107.258c.06.047.121.089.181.127.024.015.047.027.07.04.038.021.075.042.111.06.027.014.053.025.079.036.033.015.067.03.1.042l.078.027.1.029c.024.007.048.013.073.018.033.008.066.013.1.019l.066.01.103.01.057.003h.104c.492-.01.838-.208.838-.208l3.88-37.295c2.77 2.244 6.795 5.27 8.094 5.06 0 0 2.915-.051 6.225-2.157.11.108.224.216.344.323 0 0 1.26-.63 2.819-1.618-.157 1.367-.319 2.815-.477 4.28l-.724 2.484c-.505 1.867-.147 3.065.103 3.602-.354 3.764-.586 6.991-.51 8.399 0 0 .097.039.279.106-.413.681-.92 1.669-1.499 3.097-.486 1.2-3.154 4.151-3.832 4.89-.059.048-.112.102-.157.17-.433.658.31 1.969 1.766 3.345l.114.106-2.14 3.803-.051-.002c-.756.04-1.133.515-1.373.996-.076.153-.112.31-.125.453-.058.003-.101.024-.12.068-.044-.02-.087-.042-.13-.064-.012-.047-.041-.133-.109-.216-.212-.262-.703-.458-.77-.269l.016.016c-.06-.033-.118-.067-.176-.101l-.004-.038s-.018-.131-.118-.254c-.211-.261-.702-.458-.77-.268 0 0 .012.012.031.035-.35-.222-.58-.375-.58-.375-.135-.093-.268-.177-.399-.256l-.02-.012c-.07-.043-.14-.083-.208-.122l-.031-.017c-.072-.04-.144-.078-.214-.115l-.018-.009c-.075-.038-.149-.074-.221-.108l-.003-.001c-2.219-1.037-3.656-.272-3.656-.272-3.962 3.017 3.142 11.436 7.332 12.823.346.115.722.063 1.105-.09l.046-.02c.075-.03.15-.065.224-.103.061-.09.103-.198.13-.32 1.228-1.158 2.203-3.63 2.203-3.63l.005-.05 1.455-2.018c.956.098 1.138-.104 1.352-.384.625-.82.14-1.646.14-1.646l-.035-.07c.9-1.185 1.936-2.572 2.956-3.843 1.457.506 2.588.54 2.96-.015.211-.162.488-.6.756-1.699 0 0 .949-.429 1.617-1.473l.03-.046c.046-.072.09-.147.131-.226.665-1.241 4.256-4.135 4.527-3.917 0 0 1.08-.398 2.715.96 1.495 1.24 3.84 3.479 5.59 5.08l.004.002.007.002c.002 0 .004 0 .006.002l.013.003.01.003.014.005.016.004.017.005.023.006.02.005.026.007.026.007.03.007.028.007.034.008.035.008.035.008.039.009.04.008.042.01.042.008.047.009.044.008.053.01.043.008.06.01.043.007.067.01.04.007.076.011.01.002c.227.031.485.059.771.075 1.42 2.845 3.077 5.498 4.468 7.552-.007.002-.2.074-.092.52.124.51.685.504.685.504.04.006.08.01.12.013.745 1.064 1.369 1.9 1.772 2.427-.53.234-.476.852-.516 1.628-.25.174-.05.438-.05.438l.015-.003c-.01.091-.025.184-.042.278-.343.167-.13.462-.119.477-.035.109-.077.218-.127.328-.083.006-.131.015-.131.015-.298.143-.178.384-.134.456-.038.056-.079.112-.122.167-.238-.005-.377.028-.377.028-.353.17-.119.478-.119.478l.023-.004c-.082.073-.167.145-.26.216-2.106 1.607-1.213 3.674-1.012 4.072l.012.025.005.009.008.015.003.005.001.003.004.007.003.005c.079.049.16.092.24.133l.04.02c.08.04.159.074.24.106l.043.017c.083.031.167.06.252.085l.015.004c.085.024.171.045.258.062l.028.006c.087.017.176.031.265.042l.04.004c.09.01.18.018.272.022h.02c.191.008.386.002.583-.015l.026-.003c.098-.009.195-.02.293-.036l.015-.002c.204-.031.409-.074.615-.128l.008-.002c.103-.027.206-.056.31-.088l.008-.003c.314-.098.629-.218.941-.356l.005-.002c2.378-1.055 4.611-3.152 5.333-4.27.025-.039.046-.078.065-.118l.012-.025c.018-.04.034-.08.047-.119l.001-.004c.013-.04.023-.078.031-.118l.005-.023c.007-.04.013-.08.017-.119v-.013c.004-.035.005-.07.005-.105v-.027c0-.036-.002-.071-.005-.106l-.003-.036-.009-.068-.007-.046-.008-.04c-.007-.038-.015-.074-.024-.11-.07-.27-.178-.458-.178-.458-2-4.757-2.911-3.712-2.911-3.712-.066-.147-.133-.299-.2-.453l-.037-.084-.188-.44-.048-.114-.191-.455-.045-.11c-.067-.16-.133-.322-.2-.487l-.03-.072-.202-.502-.022-.053-.206-.52-.049-.124-.184-.471-.002-.005c.045-.099.072-.192.078-.275.064-.917-.566-1.013-.573-1.014-.428-1.126-.854-2.284-1.264-3.419l-.177-.49-.009-.024c-.372-1.037-.728-2.046-1.055-2.985l.062-.055.07-.06.168-.153.066-.061c.061-.058.122-.117.183-.178l.047-.046c.077-.077.153-.156.229-.238l.035-.038c.062-.068.124-.137.186-.208.027-.03.054-.063.08-.094l.14-.165.09-.114c.043-.052.085-.105.126-.16.032-.04.063-.082.095-.124l.12-.164.094-.13.12-.177.089-.131.13-.202.075-.119c.067-.109.134-.22.2-.334l-3.855-10.052c.205-.094.41-.191.615-.29l.118-.057.012-.006c.241-.118.483-.24.724-.365 0 0-.45-1.227-1.132-3.193 1.563-.295 3.943-1.08 5.19-3.156.983-1.639.375-4.405-.47-6.75.075.003.15.006.227.007l.054.001c.137.002.274 0 .41-.004l.06-.002c.136-.006.273-.014.41-.026l.045-.005c.143-.014.284-.03.425-.052 0 0 1.41-.086 1.656-1.313.015-.075.027-.148.037-.22l.003-.024c.105-.818-.127-1.385-.5-1.78-.056-.124-.12-.25-.191-.377-.454-.807-1.863-1.918-3.362-2.944.26-.658.43-1.287.468-1.816.335.333.67.74.914.85l.003.002.02.008c.02.007.038.013.056.015l.015.002c.019.002.037.001.055-.002l.007-.003c.019-.005.037-.013.053-.027l.002-.002c.018-.014.034-.032.048-.056.423-.693.393-1.768.29-2.561.092.121.194.231.305.33 1.323 1.183 3.797.83 3.797.83-1.202-.225-1.446-.713-1.446-.713zM187.772 75.778c-.166-.202-.411-.014-.411-.014-.085 0-1.779 1.728-1.779 1.728-.101.012-.164-.116-.176-.186-.016-.093.038-.234.038-.234.04-.14 1.03-3.121 1.03-3.121.022-.235-.192-.342-.192-.342-.17-.107-.32.086-.32.086-.149.086-1.293 3.015-1.293 3.015-.035.102-.114.132-.2.111-.161-.04-.16-.312-.16-.312-.007-.26.245-3.39.245-3.539 0-.15-.02-.552-.36-.545-.381.009-.385.448-.385.448-.064.213-.313 3.332-.478 3.702-.224.501-.406-.084-.406-.084-.11-.379-.565-2.753-.565-2.753-.037-.176-.064-.33-.25-.337-.365-.015-.38.272-.38.272-.022.644.278 3.286.278 3.286-.064.257-.151 1.192-.277 1.494-.193.459-.843.054-.843.054-1.45-1.462-1.633-.855-1.633-.855-.205.256.381.985 1.057 1.835.388.49.672.907.672.907.173.282.359.494.544.653-2.669 7.385-6.887 13.192-9.952 16.76-.496-.24-.82-.32-.82-.32-1.241.867-2.255 1.652-3.085 2.353-1.037-.261-2.092-.335-2.879-.346.595-.8 1.1-1.701 1.496-2.71 0 0 .125-.353.305-.97.165.148.35.265.556.345 1.398.542 3.594-.668 4.45-2.878.72-1.862.52-3.738-.624-4.694.063-.2.123-.4.181-.598l.05-.175c.04-.138.08-.277.117-.415.02-.07.037-.138.055-.207.034-.125.068-.25.1-.375l.052-.216c.03-.12.06-.24.087-.359l.05-.217.077-.35.044-.214.07-.346.038-.209.062-.344.033-.202c.02-.114.037-.229.054-.343.01-.065.02-.13.028-.194.017-.116.032-.23.047-.345l.023-.185.04-.347.017-.173c.012-.119.022-.236.032-.354l.013-.16.024-.36.008-.144c.007-.125.012-.25.017-.373l.004-.125c.004-.13.007-.26.008-.389l.002-.1c0-.14 0-.278-.002-.415v-.067c-.003-.153-.008-.305-.014-.456v-.018c-.702-17.01-23.325-18.976-30.645-11.382-4.7 4.876-3.712 10.947-3.602 11.538l.006.034.001.004.002.01c.283.107.567.193.848.263.014 1.653.147 3.811.662 5.303-.006 1.246-.062 2.464-.403 3.678-.069.241-.146.482-.238.722l-.006.014-.048.128-.086.232c-.02.051-.037.102-.055.153l-.077.217-.052.154-.07.215-.049.15-.067.22-.042.143-.066.237-.034.121c-.03.117-.06.234-.088.35l-.015.067-.057.248c-1.932-3.506-3.857-7.858-5.066-12.799.202-.138.41-.329.611-.59 0 0 .327-.385.765-.83.763-.775 1.424-1.437 1.246-1.712 0 0-.115-.625-1.713.674 0 0-.691.333-.833-.143-.094-.314-.08-1.253-.117-1.514 0 0 .582-2.596.627-3.238 0 0 .016-.286-.348-.31-.186-.013-.229.135-.284.306 0 0-.705 2.313-.856 2.677 0 0-.244.564-.413.041-.125-.385-.039-3.513-.08-3.73 0 0 .044-.439-.334-.488-.339-.045-.401.354-.417.502-.016.149-.1 3.289-.135 3.545 0 0-.026.27-.193.294-.086.012-.162-.026-.186-.132 0 0-.824-3.034-.964-3.136 0 0-.128-.207-.309-.118 0 0-.224.083-.227.318 0 0 .666 3.071.692 3.214 0 0 .038.145.012.237-.02.068-.095.187-.195.166 0 0-1.5-1.899-1.584-1.908 0 0-.223-.213-.41-.03-.071.07-.178.288.017.546l1.359 2.154s-.065.967.16 1.84c0 0 .385 1.87 1.52 2.092v.015l.002.03v.021l.002.032.002.03.002.047.002.038.004.057.003.055.004.059.004.07.005.065.006.08.005.073.007.09.007.084.008.098.008.092.01.11.009.096.011.122.01.103.014.13.011.111.015.14.013.115.018.151.014.12.02.163.015.12.022.176.017.125.025.185.017.124.029.2.015.105c.043.293.091.6.145.92l.001.01.044.256.02.118.044.24.027.146.044.233.03.164.047.234.034.173.049.236.038.18.05.238.042.19.054.239.045.197.057.242.048.202.06.245.051.206.064.251.054.208.068.253.058.215.07.255.062.217.075.259.065.22.079.262.068.222.083.265.072.225.087.267.076.225c.03.09.06.18.092.271l.079.227.096.273.083.228.101.276.08.21c.07.182.14.365.213.548l.096.244.107.26.104.251.11.256.11.256c.037.086.076.172.114.257l.115.256.118.255c.04.087.08.174.122.26l.121.253.128.261.126.253.133.26.131.252.138.26.136.25.144.261.141.25.15.26.145.246.157.26.15.244c.053.087.108.173.163.26l.154.241.17.26.159.237.164.24c-.254.383-.499.804-.725 1.273 0 0 4.557 5.652 8.198 6.655-1.318 5.978-1.87 11.054-1.87 11.054-.072 1.588.862 2.515.862 2.515v-.001c-.365 5.148-.626 9.76-.536 11.42 0 0 .096.038.278.106-.412.681-.918 1.67-1.497 3.098-.488 1.199-3.156 4.15-3.834 4.89-.056.045-.109.099-.153.166l-.004.004c-.432.659.31 1.967 1.767 3.344l.114.106-2.14 3.802h-.051c-.756.038-1.133.514-1.373.995-.114.226-.137.46-.13.648l-.092-.046c-.012-.047-.042-.134-.11-.218-.211-.26-.702-.458-.77-.267l.015.015-.174-.1-.005-.039s-.017-.13-.118-.254c-.211-.261-.702-.458-.77-.268 0 0 .013.012.033.035-.35-.221-.58-.375-.58-.375-1.993-1.362-3.536-1.262-4.28-1.08l-.008.001-.027.007-.05.013-.053.015-.033.01c-.066.02-.122.04-.167.057l-.019.007-.033.014-.02.008-.024.01-.016.007-.015.007-.013.007-.007.003-.006.003c-3.963 3.016 3.142 11.435 7.331 12.821.28.093.58.078.886-.013l.01-.002c.072-.022.146-.048.22-.078l.026-.011c.078-.032.156-.068.234-.108.06-.09.103-.198.129-.32 1.228-1.157 2.203-3.629 2.203-3.629.005-.039.007-.077.011-.115l1.36-2.092c.899.081 1.08-.115 1.29-.39.623-.82.138-1.646.138-1.646-.01-.024-.023-.046-.034-.07.899-1.185 1.936-2.573 2.956-3.845 1.458.508 2.59.542 2.96-.014.212-.162.488-.6.756-1.7 0 0 .62-.28 1.212-.938l-.001.002.007-.009.02-.023c.142-.16.282-.343.41-.55.045-.072.089-.147.13-.225.666-1.243 4.256-4.135 4.527-3.918 0 0 1.08-.397 2.715.96 1.494 1.242 3.84 3.48 5.59 5.081l.004.002c.001 0 .004 0 .007.002l.006.002.013.003.009.003.015.004.016.005.018.005.02.005.023.006.025.007.027.007.028.007.03.007.034.008.032.008.038.008.038.009.039.008.043.01.04.007.048.01.046.008.05.01.047.008.057.01.045.007.065.01.044.007.072.01.012.002c.226.032.485.06.77.076l.154.305.04.077c.101.2.204.398.308.596l.05.096c.103.194.206.387.31.579l.053.097.318.577.023.04c1.085 1.936 2.216 3.714 3.212 5.184 0 0-.201.068-.092.52.124.51.684.505.684.505.04.006.081.01.122.012l.024.035.008.012.276.392.026.035.11.154c.01.015.02.03.032.045l.102.142.038.054.094.13.041.057.088.12.044.06.082.113.035.048.155.21.043.059.056.075.058.078.056.075.052.07.05.066.055.074.044.058.053.07c.014.02.028.037.042.055l.052.069.035.046.02.027c-.531.233-.476.85-.516 1.626-.25.174-.05.439-.05.439.004-.002.01-.002.015-.003-.01.091-.025.184-.041.279-.352.168-.123.473-.12.477-.035.108-.077.216-.126.325-.084.007-.132.015-.132.015-.299.145-.178.385-.133.458-.038.056-.08.112-.123.168-.238-.005-.377.027-.377.027-.353.17-.119.478-.119.478l.023-.004c-.081.072-.167.144-.26.216-.46.35-.775.723-.987 1.096-.007.01-.011.02-.017.03-.07.128-.13.255-.177.38l-.01.023c-.014.04-.028.081-.04.121l-.01.03-.035.122-.002.01c-.047.18-.074.359-.085.53l-.001.011c-.014.216-.004.422.02.612v.005c.025.19.064.363.107.515l.003.01c.008.028.016.056.025.082l.002.008c.027.084.054.16.08.228v.001l.023.057.007.016.02.047.007.016.018.04.003.007.031.065.007.013.01.02.007.013.006.012.005.01.004.006.003.005c.08.05.16.093.242.135l.037.019c.08.039.161.074.243.107l.038.014c.085.032.17.062.258.087h.004c.09.027.181.049.273.067l.017.004c.09.018.182.032.274.043l.028.003c.094.01.188.019.284.022h.003c.198.009.399.003.602-.016h.013c.1-.01.203-.023.305-.038 2.984-.454 6.315-3.437 7.23-4.851.024-.039.044-.077.064-.116l.013-.029c.018-.038.033-.077.046-.116l.003-.01c.012-.037.02-.074.029-.11l.005-.027c.008-.04.013-.079.017-.118v-.014c.004-.036.005-.07.005-.106v-.024c0-.037-.002-.075-.005-.111l-.002-.021c-.003-.031-.007-.061-.012-.09 0-.01-.002-.018-.003-.027l-.019-.095-.009-.035-.014-.057-.02-.068-.012-.036-.02-.058v-.001c-.06-.163-.12-.267-.12-.267-1.997-4.757-2.91-3.711-2.91-3.711-.079-.177-.159-.36-.24-.546l-.05-.118-.196-.46c-.02-.045-.038-.09-.057-.136l-.197-.47-.057-.141-.2-.49-.059-.146-.199-.497-.065-.164-.185-.472-.087-.222-.011-.029c.044-.099.071-.191.077-.274.066-.922-.573-1.014-.573-1.014-.43-1.135-.86-2.302-1.273-3.445-.436-1.207-.853-2.387-1.231-3.474l.059-.052.075-.065.16-.145.074-.068.169-.165.061-.06c.075-.075.15-.153.224-.233.02-.02.038-.042.057-.062.055-.06.11-.12.164-.183l.093-.108.126-.15.1-.125.117-.148.1-.134c.039-.05.076-.102.114-.154l.1-.14.114-.166c.031-.046.063-.092.094-.14l.124-.193.08-.126c.067-.109.134-.22.2-.333l-3.855-10.052c.166-.077.332-.155.498-.235l.233-.111c.246-.12.492-.244.738-.372 0 0-.45-1.227-1.132-3.193 1.563-.296 3.943-1.08 5.189-3.156 1.955-3.258-2.375-10.971-2.375-10.971 1.018-1.589-1.262-2.717-1.262-2.717.065-1.134-.208-3.663-.48-5.794 2.277-1.607 4.117-3.446 4.117-3.446-.048-.135-.098-.266-.15-.394-.04-.1-.08-.195-.122-.29l-.031-.076c-.09-.203-.185-.397-.282-.584l.029-.034.14-.163.24-.288.14-.17.23-.287.138-.175.222-.288.135-.178.216-.29.13-.18.21-.291.127-.183c.069-.098.136-.195.203-.294l.122-.18.198-.297.118-.18c.065-.1.13-.2.193-.301l.11-.176c.064-.102.128-.204.19-.306.036-.057.07-.114.104-.171l.188-.312.094-.161.188-.324.077-.138c.066-.116.131-.231.195-.347l.05-.092c.317-.577.614-1.153.892-1.725l.042-.083.16-.336.068-.143.143-.309.076-.167.132-.293.08-.18.121-.28.081-.189c.04-.09.077-.182.115-.272l.08-.192.108-.265.079-.194.102-.26.076-.194.097-.253.074-.195.093-.247.07-.194c.03-.082.06-.163.088-.244l.068-.19.084-.238.065-.19.079-.232.062-.185.075-.228.059-.183.072-.223.055-.177.068-.218.053-.174.064-.212.049-.168.061-.208.045-.157.06-.208.035-.129.123-.452.028-.105.049-.187.037-.144.043-.17.038-.149.039-.16.035-.145.036-.15.033-.141.033-.14.031-.138.03-.129.029-.133.026-.121.027-.125.024-.114.024-.117.022-.104.022-.11.019-.096.02-.101.017-.087.017-.094.014-.076.016-.086.012-.067c.005-.026.01-.05.013-.074l.011-.062c.004-.021.008-.041.01-.061l.01-.053.009-.053.006-.041.007-.04.006-.036.004-.028.004-.025.006-.043c1.152-.101 1.735-1.919 1.735-1.919.317-.843.356-1.813.356-1.813l1.58-1.995c.222-.235.14-.465.076-.542M128.71 43.601c-.167-.203-.412-.015-.412-.015-.084 0-1.779 1.728-1.779 1.728-.1.011-.163-.116-.176-.186-.015-.094.038-.234.038-.234.04-.14 1.031-3.121 1.031-3.121.021-.235-.192-.341-.192-.341-.17-.107-.32.085-.32.085-.149.085-1.293 3.014-1.293 3.014-.035.104-.114.133-.2.111-.162-.04-.16-.311-.16-.311-.008-.258.245-3.39.245-3.54 0-.149-.02-.552-.361-.544-.38.008-.385.448-.385.448-.064.214-.313 3.332-.477 3.702-.224.502-.406-.084-.406-.084-.11-.378-.565-2.753-.565-2.753-.038-.176-.064-.329-.25-.336-.365-.015-.38.271-.38.271-.022.644.277 3.286.277 3.286-.063.257-.15 1.192-.276 1.494-.192.46-.843.053-.843.053-1.45-1.462-1.632-.853-1.632-.853-.206.256.38.984 1.056 1.835.388.489.672.906.672.906.172.282.358.494.544.653-2.685 7.43-6.94 13.263-10.009 16.824-.46-.294-.764-.385-.764-.385-.348.244-.678.481-.992.712.006-1.112.046-2.067.087-2.758.6-.51 1.122-1.208 1.45-2.053.609-1.573.56-3.156-.16-4.186.738-1.838 1.263-3.524 1.607-5.071v.002l.016-.074c.042-.194.082-.386.119-.576l.02-.104c.039-.201.073-.4.105-.597l.021-.127c.03-.193.058-.384.082-.573l.015-.122c.024-.19.045-.38.063-.565l.008-.094c.018-.195.033-.387.044-.576 0-.01 0-.021.002-.032.01-.19.018-.378.023-.563l.001-.053c.004-.184.005-.365.003-.544v-.076c-.003-.176-.01-.35-.017-.52l-.004-.073c-.01-.173-.021-.344-.036-.512l-.004-.047c-.033-.356-.078-.701-.134-1.035l-.003-.022c-.028-.162-.06-.322-.092-.48l-.01-.045c-.033-.155-.069-.308-.107-.458l-.01-.042c-.04-.152-.081-.302-.126-.45l-.005-.017c-.093-.308-.196-.606-.31-.893 0-.002 0-.004-.002-.005-.055-.14-.113-.278-.173-.414l-.011-.025c-.06-.133-.12-.264-.184-.392l-.011-.023c-.265-.533-.564-1.025-.89-1.48l-.01-.014c-.08-.112-.161-.22-.244-.327l-.01-.012c-.34-.437-.705-.838-1.088-1.204l-.009-.009c-.094-.09-.19-.178-.285-.264l-.007-.006c-.39-.35-.797-.666-1.21-.952l-.01-.007c-.101-.07-.203-.139-.305-.205l-.006-.004c-.313-.204-.627-.39-.942-.562l-.002-.002c-.103-.056-.206-.11-.309-.163l-.012-.007-.305-.153-.007-.003c-.31-.15-.618-.288-.92-.412l-.005-.002c-.098-.04-.196-.08-.292-.117l-.015-.005c-.096-.037-.19-.074-.285-.108l-.009-.003c-.289-.106-.57-.2-.838-.283l-.011-.004-.255-.077-.018-.005c-.083-.024-.165-.048-.246-.07l-.01-.003c-.249-.068-.483-.127-.7-.178l-.016-.003-.2-.045-.018-.004-.188-.04-.015-.003c-.125-.025-.241-.048-.349-.067l-.007-.002-.148-.026-.016-.002-.13-.022-.015-.002-.116-.018-.01-.001c-.074-.011-.138-.02-.19-.026l-.006-.001-.065-.008-.01-.001-.046-.006h-.005l-.027-.003h-.007l-.006-.001c-.113-.07-.225-.138-.337-.204l-.106-.06c-.08-.047-.161-.092-.241-.137l-.108-.059c-.106-.057-.213-.114-.319-.168l-.055-.027c-.095-.048-.19-.094-.284-.139l-.12-.055-.218-.1-.121-.052c-.097-.042-.194-.082-.29-.12-.037-.016-.074-.03-.11-.044-.078-.03-.156-.06-.233-.088l-.14-.05c-.062-.022-.123-.044-.185-.064l-.143-.049-.219-.068-.216-.063-.162-.046-.17-.044-.136-.034-.18-.042-.085-.019c-6.165-1.349-10.926 2.669-10.926 2.669-2.608.953-3.788 3.419-4.139 4.308-1.663 1.716-2.609 3.768-3.128 5.301l-.009.027-.064.194-.025.079-.042.135-.023.073-.05.169-.007.026c-.019.064-.037.126-.053.187l-.014.05-.039.144-.009.036-.043.17-.004.014-.035.147-.007.03c-.023.1-.044.194-.061.277l-.004.019-.022.103-.003.016-.035.187-.002.012c-.004.023-.008.044-.01.063l-.001.003-.008.049-.002.009-.003.022-.001.006-.001.008c.438-.066 1.003-.189 1.608-.336-1.115 3.562-.109 6.706-.984 9.82h-.001c-.069.245-.148.49-.242.735-.047.123-.093.244-.137.366l-.05.14-.079.222-.055.165-.065.195-.055.176c-.02.06-.037.12-.055.18l-.055.183-.046.166-.053.193-.033.128c-.037.144-.07.288-.102.431l-.025.109-.044.22-.024.122c-.014.074-.026.147-.038.22l-.02.118-.032.224-.014.106c-.01.079-.02.157-.028.236l-.007.07c-.038.389-.054.774-.046 1.156v.048c.003.087.007.175.012.262l.003.057c.006.088.012.177.02.265l.005.04c.058.6.181 1.191.376 1.776 0 .003.002.006.003.008.444 1.332 1.259 2.631 2.544 3.919.827.83 2.062 1.557 3.552 2.127-.216.815-.458 2.006-.553 3.488l-.18.08c-.003.003-.007.004-.012.006-1.21.558-2.728 1.374-4.59 2.569 0 0-.063.423.001 1.11-1.933 1.23-4.18 2.816-4.777 3.876-.072.128-.135.254-.191.379-.342.361-.566.868-.519 1.58v.011c.005.061.01.123.02.186l.002.027c.01.071.022.144.037.22.245 1.227 1.656 1.313 1.656 1.313.14.021.281.038.422.052l.05.005c.134.012.27.02.405.025l.066.003c.134.004.268.006.403.004l.064-.001c.138-.003.275-.008.413-.017l.042-.003c.289-.019.578-.05.867-.094l.046-.007c.137-.02.275-.044.412-.07l.061-.012c.136-.026.271-.055.406-.085l.058-.014c.138-.032.275-.065.412-.101l.033-.01c.285-.075.568-.16.848-.251l.042-.014c.133-.044.266-.09.397-.137l.053-.019c.13-.047.26-.096.389-.145l.046-.018c.132-.052.263-.104.392-.158l.02-.008c.268-.112.531-.228.787-.347l.032-.015c.123-.057.244-.115.363-.173l.04-.02c.119-.058.236-.117.351-.175l.031-.016c.365-.187.712-.377 1.036-.562l.022-.013c.103-.06.205-.118.304-.177l.026-.016.212-.126c-.127 1.119-.256 2.28-.383 3.454l-.723 2.482c-.505 1.866-.147 3.064.102 3.601-.354 3.764-.586 6.992-.51 8.4 0 0 .314.127.892.32-.097.204-.203.42-.317.643-1.202 2.357-3.247 5.603-3.717 6.507-.072.14-.128.272-.175.4l-.015.04c-.016.044-.029.087-.042.13l-.007.026-.016.052c-.013.048-.023.095-.033.14-.003.02-.008.038-.012.057-.008.044-.014.086-.02.128l-.007.056-.01.117-.002.054c-.001.037-.002.073 0 .108v.05l.007.098.004.046.012.089.007.041.016.08.01.036c.005.024.011.047.018.069l.01.032c.006.02.012.04.019.058l.01.027c.007.017.013.034.02.048l.009.023.017.036.008.016v.002l.013.025.005.007v.002l.003.004.007.012.005.009c.21.293.437.571.677.838l-2.865 5.09h-.05c-.757.04-1.133.514-1.374.995-.113.226-.136.46-.129.648l-.092-.046c-.012-.047-.042-.134-.11-.218-.211-.26-.703-.457-.77-.267l.017.016-.176-.102-.005-.038s-.018-.13-.117-.254c-.213-.26-.703-.457-.77-.268 0 0 .012.012.031.035-.35-.221-.58-.376-.58-.376-.135-.092-.268-.176-.399-.255l-.026-.016c-.066-.04-.13-.077-.194-.113l-.049-.027-.195-.105-.041-.02c-.066-.034-.132-.066-.197-.097l-.032-.015-.2-.089-.02-.008c-.07-.03-.138-.057-.206-.083l-.006-.002c-1.016-.384-1.838-.393-2.396-.31h-.003l-.111.018-.006.001-.1.02-.008.002c-.032.006-.062.013-.091.02l-.004.001-.004.001-.012.003-.07.019-.01.002-.006.002-.018.005-.048.014-.01.003-.063.02-.01.004-.054.019-.009.003-.046.018H69.7l-.005.002-.038.016-.006.003h-.002c-.002.002-.004.002-.007.003l-.02.01-.006.002-.005.002-.006.003-.009.004-.008.004-.002.001-.003.002h-.002l-.005.003c-3.963 3.016 3.142 11.435 7.33 12.823.28.092.58.076.888-.015l.004-.001c.073-.022.147-.048.22-.078l.034-.013c.077-.033.154-.067.23-.107.061-.09.103-.197.13-.32 1.228-1.157 2.203-3.63 2.203-3.63.005-.038.008-.077.012-.116l1.36-2.09c.897.082 1.078-.116 1.288-.39.624-.822.14-1.644.14-1.644l-.035-.071c.899-1.185 1.936-2.573 2.956-3.845.33-.41.646-.808.945-1.182 3.2 1.022 6.597 1.091 8.737.407.134-.043.268-.08.403-.115l.126-.03c.093-.022.186-.043.28-.062l.147-.027c.088-.016.175-.03.263-.043l.15-.02c.09-.011.179-.02.269-.029.045-.004.091-.01.137-.013.104-.008.207-.013.31-.018l.092-.004c.134-.005.268-.006.4-.005l.088.002c.103.002.206.005.308.01l.138.008c.085.005.17.011.254.018l.146.014.243.026.142.018c.085.011.17.024.254.037l.117.017c.12.02.24.041.357.064h.004c.121.024.24.049.358.075l.086.02c.088.02.175.04.26.062l.098.025c.082.02.163.042.242.064l.085.023c.088.025.175.05.26.076l.046.014c.103.031.203.063.3.095l-.014-.005c.655.214 1.176.433 1.5.58l.015.008-.003-.002c.23.105.36.173.36.173 1.057.187 2.06.262 3.007.247 1.21 2.24 2.515 4.302 3.644 5.97-.003 0-.2.071-.091.52.124.51.684.505.684.505.04.006.08.01.121.012.745 1.065 1.369 1.901 1.772 2.428-.531.234-.476.852-.516 1.627-.25.175-.05.438-.05.438l.015-.003c-.011.091-.025.184-.042.278-.35.169-.124.472-.12.478-.035.108-.076.217-.126.326-.084.006-.131.015-.131.015-.299.144-.18.384-.134.457-.038.056-.08.112-.123.168-.237-.006-.376.027-.376.027-.354.17-.119.479-.119.479l.022-.004c-.082.072-.167.144-.26.215-.46.35-.774.723-.987 1.096l-.008.016c-.077.135-.14.27-.19.405 0 .003-.002.006-.003.008l-.045.13-.005.019c-.072.23-.11.456-.125.672v.003c-.014.219-.005.426.02.618v.001c.025.19.064.365.107.518l.002.007.026.085v.004l.036.107.003.008.043.117.023.057.007.015.019.045c0 .002 0 .003.002.004l.006.015.018.04.002.004.01.023.004.008.018.037.007.013.005.011.002.004.003.004.007.014.006.012.003.006.003.004.003.006.003.005c.078.048.159.092.24.133.014.007.027.015.041.021.078.038.157.073.237.105l.046.017c.083.031.166.06.25.084l.02.006c.082.023.166.043.25.06l.034.008c.085.016.172.03.259.04l.047.006c.088.01.176.017.265.02l.031.002c.09.003.18.003.271.001h.016c.093-.002.186-.008.28-.017l.042-.004c.093-.008.186-.02.279-.034l.035-.005c.195-.03.39-.072.587-.122l.032-.009c.096-.025.193-.052.29-.082l.032-.01c.203-.064.406-.137.608-.218.003 0 .007-.002.01-.004.1-.04.201-.083.301-.127l.023-.01c2.374-1.056 4.602-3.15 5.324-4.265.025-.039.046-.078.065-.117l.013-.027c.017-.039.033-.078.046-.118l.002-.005c.012-.039.022-.078.03-.117l.005-.022c.007-.04.013-.08.017-.12v-.01c.004-.038.005-.076.005-.113v-.018c0-.04-.002-.078-.005-.117l-.001-.01c-.004-.037-.008-.072-.014-.107l-.002-.013-.02-.106-.004-.015-.023-.088-.004-.014-.027-.085-.008-.023-.008-.024c-.06-.162-.12-.267-.12-.267-1.998-4.756-2.91-3.711-2.91-3.711-.076-.17-.154-.346-.231-.526l-.132-.307-.103-.241-.157-.375-.08-.195c-.058-.137-.115-.276-.172-.416l-.07-.17-.181-.452-.06-.15c-.064-.158-.127-.318-.19-.478l-.056-.143-.172-.438c.045-.099.072-.191.077-.274.066-.922-.572-1.014-.572-1.014-.426-1.121-.85-2.274-1.26-3.405h.001c-.17-.473-.339-.942-.503-1.403 3.732-1.93 5.747-5.036 6.046-5.7.488-1.089-.164-1.275-1.222-1.193-1.059.081-3.665-.57-5.224-5.783-.363-1.215-.704-2.123-1.013-2.806.23-.113.46-.229.69-.349 0 0-.279-.76-.73-2.04l-.294-.841-.108-.312c1.563-.296 3.943-1.08 5.189-3.155 1.539-2.566-.817-7.892-1.889-10.042.472-.462.691-.79.691-.79-.392-.097-.745-.215-1.064-.346.165-.344.179-.663.103-.951 1.277.194 2.19-.252 2.19-.252-1.608-.26-2.803-1.244-3.69-2.636-.072-1.22-.252-2.834-.435-4.29 1.072-.703 2.003-1.435 2.637-1.962l.037-.031.111-.094.032-.026c.435-.368.69-.606.69-.606-.166-.596-.35-1.134-.547-1.625l.2-.223.123-.14c.09-.1.178-.203.265-.305l.125-.145c.086-.101.17-.203.254-.306l.124-.15.246-.307.121-.154.24-.31.116-.154c.08-.104.157-.209.234-.314l.111-.152.229-.32.106-.15.224-.325.099-.147c.074-.11.148-.22.22-.331l.092-.14.22-.341.08-.129c.074-.118.148-.236.22-.354l.068-.111c.075-.124.15-.248.223-.372l.05-.085c.077-.133.155-.266.231-.4l.022-.038c.614-1.079 1.158-2.158 1.64-3.213l.026-.056.172-.385.038-.086.158-.364.044-.103.147-.348.048-.114.137-.336.049-.122.13-.327.047-.123.124-.322.046-.122c.04-.106.08-.211.118-.316l.045-.123.112-.31.043-.12.107-.307.04-.114c.035-.102.07-.204.103-.305l.036-.108.1-.304.032-.096.098-.306.026-.084.097-.311.018-.058.098-.326.006-.021c.215-.723.394-1.389.543-1.983l.01-.041.058-.236.017-.07.05-.21.02-.08.043-.19.02-.088.039-.171.02-.092.034-.156.02-.09.03-.146.017-.083.028-.134.017-.083.023-.12.015-.077.021-.108.014-.074.018-.095.012-.065.016-.087.01-.057.013-.074.009-.054.01-.06.007-.044.009-.05.005-.032.007-.043.004-.026.004-.026.006-.043c1.152-.1 1.735-1.917 1.735-1.917.317-.843.355-1.814.355-1.814l1.582-1.995c.22-.235.138-.464.075-.54M318.108 263.288c.018-.038.033-.077.046-.116l.004-.013c.01-.035.02-.07.027-.106l.007-.032c.007-.037.012-.073.016-.11l.002-.035.004-.076v-.049l-.004-.073c-.002-.028-.004-.055-.008-.082 0-.01-.002-.018-.003-.027-.051-.38-.22-.673-.22-.673-1.999-4.758-2.911-3.712-2.911-3.712l-.198-.448-.04-.092-.182-.424-.06-.141-.176-.42-.067-.162-.174-.424-.07-.171-.143-.357-.087-.216-.154-.389-.077-.196-.162-.414-.014-.035c.044-.1.072-.192.077-.275.065-.922-.572-1.014-.572-1.014-.45-1.185-.899-2.405-1.328-3.596l-.076-.211-.066-.183c-.365-1.017-.714-2.006-1.035-2.929l.062-.054.07-.06.173-.158.058-.054c.07-.065.139-.133.208-.202l.021-.02c.155-.157.309-.322.46-.495l.051-.06c.057-.066.114-.133.17-.202l.068-.085.15-.191c.026-.032.05-.065.075-.098.048-.063.095-.128.142-.194l.075-.104c.048-.068.094-.136.141-.205l.071-.106c.05-.075.1-.153.148-.231l.06-.093c.068-.11.135-.223.202-.338l-3.855-10.053c.133-.06.265-.124.398-.187l.094-.044c.08-.04.16-.076.24-.116h.002c.245-.12.49-.243.735-.37 0 0-.45-1.228-1.132-3.193 1.563-.296 3.943-1.08 5.189-3.156.984-1.64.377-4.406-.47-6.75l.221.007h.065c.134.002.269.001.403-.003l.066-.003c.135-.005.27-.014.405-.026l.05-.005c.14-.013.282-.03.422-.05 0 0 1.411-.087 1.656-1.313.015-.076.027-.15.037-.222l.002-.02c.107-.82-.125-1.388-.498-1.783-.056-.124-.12-.25-.192-.378-.454-.806-1.864-1.917-3.362-2.944.497-1.253.67-2.406.208-2.95l-.004-.003c-1.14-.926-2.146-1.667-3.028-2.264-.27-2.222-.578-4.256-.578-4.256-.74-3.015-4.793-3.368-6.718-3.361.075-.094.148-.189.22-.285l.029-.038c.089-.12.175-.242.26-.367l.07-.104c.063-.095.125-.191.185-.289l.071-.114c.075-.124.149-.249.22-.376l.013-.024c.075-.135.147-.273.217-.413l.059-.12c.052-.106.102-.214.151-.322.02-.043.039-.085.057-.128.064-.146.127-.294.186-.445 0 0 .126-.353.306-.97.164.148.35.265.555.344 1.4.542 3.596-.666 4.45-2.876.721-1.863.52-3.74-.623-4.696.083-.22.163-.439.24-.654.026-.071.05-.14.074-.211l.148-.43c.028-.081.054-.163.08-.244.043-.128.084-.256.124-.382l.077-.25.11-.364.07-.246c.035-.121.067-.242.1-.362l.06-.228c.036-.134.068-.267.1-.398l.044-.175c.044-.185.085-.367.123-.546l.039-.187.07-.353.043-.232c.017-.099.035-.197.05-.295l.04-.241.04-.271.032-.242c.012-.087.022-.172.032-.258l.026-.238.024-.249.02-.232c.007-.084.011-.166.016-.248.01-.144.016-.287.022-.427l.008-.211.003-.244v-.193c0-.08 0-.16-.002-.24l-.004-.182-.01-.239-.01-.168c-.004-.08-.009-.16-.015-.238l-.013-.153c-.007-.08-.014-.162-.023-.241l-.014-.118c-.034-.296-.078-.582-.13-.857l-.016-.088-.05-.235-.024-.109-.053-.22-.029-.11c-.018-.072-.038-.143-.058-.214l-.03-.103c-.021-.07-.042-.142-.065-.211-.008-.028-.018-.055-.027-.082-.086-.26-.179-.51-.28-.748l-.005-.015c-.028-.065-.056-.129-.085-.192-.01-.021-.018-.043-.028-.063-1.616-3.517-4.678-4.411-4.678-4.411-1.448-6.592-12.702-9.85-24.089-2.163l-.017.011c-.173.117-.346.237-.52.359-.29.204-.579.413-.868.632-5.875 4.44-2.997 9.375-2.058 10.69v.001c.028.04.054.074.078.106l.028.038.002.003c.093.123.15.19.15.19l.001-.002c-.674 3.366.228 6.38-.93 9.393-1.63 4.236-1.68 7.913 1.899 11.501 1.313 1.316 3.648 2.375 6.404 2.956l.024.005c.435.092.881.171 1.335.237l.028.004c.452.066.91.12 1.376.159.015 0 .03.002.044.003.123.01.246.02.37.028.02.105.043.208.071.31l-.729.177-.008.002-.252.064c-.198-.638-1.462-.27-2.12.14-.274.171-.331.557-.331.557-.61.204-1.089.4-1.388.58v.001c-1.328.4-3.563 1.324-6.903 3.467 0 0-.063.423.001 1.11-1.933 1.23-4.181 2.816-4.777 3.876-.072.128-.135.254-.192.379-.408.433-.65 1.072-.46 2.024.246 1.227 1.656 1.313 1.656 1.313.14.021.281.038.423.052l.049.005c.135.012.27.02.405.025l.066.003c.135.004.269.006.404.004l.063-.001c.138-.003.275-.008.413-.017.014 0 .028-.002.041-.003.29-.019.58-.05.87-.094l.043-.006c.138-.021.277-.045.415-.072l.058-.01c.137-.027.273-.056.41-.087l.052-.012c.14-.032.28-.066.418-.103l.023-.006c.291-.077.579-.163.863-.257l.03-.01c.137-.045.273-.092.408-.14l.04-.015c.135-.048.27-.098.402-.15l.03-.011c.422-.165.832-.342 1.227-.525l.003-.002c.131-.061.261-.123.39-.186l.008-.004c.74-.362 1.416-.741 1.997-1.093-.127 1.119-.256 2.281-.383 3.454l-.723 2.483c-.506 1.866-.147 3.064.103 3.6-.354 3.765-.586 6.992-.51 8.4 0 0 .097.04.278.106-.412.682-.918 1.67-1.498 3.098-.486 1.2-3.157 4.154-3.833 4.89-.057.047-.108.1-.152.166l-.004.004c-.433.659.31 1.968 1.766 3.344l.114.106-2.14 3.804-.05-.001c-.757.038-1.134.513-1.374.995-.076.152-.112.31-.125.452-.058.003-.102.025-.12.069-.043-.02-.086-.042-.13-.064-.012-.047-.041-.133-.109-.217-.212-.26-.703-.457-.77-.268l.016.016-.175-.101-.005-.038s-.018-.13-.118-.255c-.211-.26-.703-.457-.77-.267 0 0 .013.011.032.034-.35-.221-.58-.375-.58-.375-2.524-1.725-4.328-1.104-4.7-.944l-.003.001-.034.016-.005.002-.02.01h-.002l-.007.004c-3.962 3.016 3.143 11.436 7.332 12.823.347.115.725.062 1.11-.093l.037-.015c.076-.032.152-.066.228-.106.061-.09.103-.197.13-.319 1.227-1.157 2.202-3.63 2.202-3.63l.005-.05 1.456-2.018c.955.097 1.138-.103 1.352-.384.625-.821.14-1.646.14-1.646l-.035-.07c.9-1.185 1.937-2.573 2.956-3.844 1.459.507 2.591.54 2.961-.015.211-.163.487-.601.755-1.699 0 0 1.113-.5 1.779-1.744.665-1.243 4.255-4.135 4.527-3.918 0 0 1.079-.397 2.714.96 1.494 1.241 3.84 3.48 5.59 5.08 0 0 .307.099.827.181l.022.004.07.01.06.01h.012c.226.033.485.06.77.076 1.42 2.845 3.077 5.498 4.468 7.552-.008.003-.199.078-.091.52.123.51.684.506.684.506.04.006.08.009.121.012.745 1.064 1.369 1.9 1.771 2.427-.53.234-.476.852-.515 1.627-.251.174-.05.438-.05.438l.014-.003c-.01.091-.024.184-.041.278-.346.168-.13.464-.12.477-.035.109-.077.218-.126.327-.084.007-.132.016-.132.016-.298.143-.178.384-.133.456-.039.056-.08.112-.123.168-.238-.005-.376.027-.376.027-.354.17-.12.479-.12.479l.023-.004c-.082.072-.167.144-.26.216-1.715 1.307-1.441 2.92-1.172 3.689l.002.006c.032.091.064.17.092.236l.003.005v.002l.037.08.002.005.022.045.002.005.007.013.001.001.004.008.006.01.007.014.003.006.002.004.003.006.003.005c.078.048.158.092.238.132l.045.023c.076.038.154.072.232.103l.055.02c.08.03.159.058.24.081l.036.01c.075.021.15.04.226.055l.052.011c.08.016.162.028.244.039l.067.008c.081.008.163.015.246.019l.058.002c.076.002.152.002.23.002l.047-.001c.085-.003.17-.009.256-.016l.07-.006c.085-.008.17-.019.255-.031l.065-.01c.085-.014.169-.03.253-.046l.035-.008c.088-.018.175-.039.263-.061l.06-.016c.09-.023.178-.049.267-.076l.06-.019c.092-.029.184-.06.276-.092l.025-.009c.092-.033.183-.068.274-.104l.036-.014c.095-.038.19-.078.283-.12l.042-.018c.096-.043.193-.088.29-.134l.003-.002c2.258-1.092 4.33-3.057 5.021-4.125.025-.038.046-.077.065-.116l.013-.028" transform="translate(-29 69) translate(361)"/>
                </g>
            </g>
        </g>
    </g>
</svg>
